<svg id="Layer_1" data-name="Layer 1" xmlns="http://www.w3.org/2000/svg" xmlns:xlink="http://www.w3.org/1999/xlink" viewBox="0 0 1200 1200"><defs><style>.cls-1,.cls-10,.cls-13,.cls-15,.cls-6,.cls-8{fill:none;}.cls-2{fill:#e9e8e8;}.cls-3{fill:#9dd5c0;}.cls-4{fill:#231f20;}.cls-11,.cls-5{fill:#fff;}.cls-10,.cls-11,.cls-13,.cls-15,.cls-6,.cls-8{stroke:#1d252e;stroke-linecap:round;}.cls-11,.cls-6,.cls-8{stroke-width:4px;}.cls-7{fill:#1d252e;}.cls-11,.cls-13,.cls-8{stroke-linejoin:round;}.cls-9{clip-path:url(#clip-path);}.cls-10{stroke-width:1.02px;}.cls-12{clip-path:url(#clip-path-2);}.cls-13{stroke-width:1.01px;}.cls-14{clip-path:url(#clip-path-3);}.cls-15{stroke-width:0.91px;}</style><clipPath id="clip-path"><polygon class="cls-1" points="743.45 713.82 868.53 713.82 881.25 622.86 756.18 622.86 743.45 713.82"/></clipPath><clipPath id="clip-path-2"><polygon class="cls-1" points="757.97 610.02 883.05 610.02 895.77 519.06 770.7 519.06 757.97 610.02"/></clipPath><clipPath id="clip-path-3"><polygon class="cls-1" points="728.93 817.62 854 817.62 866.73 726.66 741.65 726.66 728.93 817.62"/></clipPath></defs><path id="Path-141" class="cls-2" d="M908.32,517.93C837.26,431.92,688,208.77,496.71,298S-84.43,936.39,510.33,919.13c157.39.23,384.07,20.78,450.48-39.35C1071.17,779.87,952.69,571.62,908.32,517.93Z"/><path class="cls-3" d="M1005.16,789.45c4.64-12.59,7-26.19,23.78-21.23C1015.89,773.57,1005.16,789.45,1005.16,789.45Z"/><path class="cls-3" d="M1007.93,790.72c-.19-7.72,1.05-15.58-9-16C1005,780.07,1007.93,790.72,1007.93,790.72Z"/><path class="cls-3" d="M1008,791.27c-3-13.08-8.37-25.79,8.4-30.75C1008.39,772.11,1008,791.27,1008,791.27Z"/><path class="cls-3" d="M964.59,789.45c-4.64-12.59-7-26.19-23.78-21.23C953.85,773.57,964.59,789.45,964.59,789.45Z"/><path class="cls-3" d="M961.73,791.27c3-13.08,8.37-25.79-8.4-30.75C961.36,772.11,961.73,791.27,961.73,791.27Z"/><path class="cls-3" d="M966.17,790.72c.19-7.72-1-15.58,9-16C969.07,780.07,966.17,790.72,966.17,790.72Z"/><path class="cls-3" d="M1003,605.46c8,3.88,10.71,14.09,7.81,22.13-4.08,11.43-14.24,19.6-24.74,24.65l-1.51-1c.16-11.48,7-20.58,12.44-29.5a27.25,27.25,0,0,0,3.89-8.92c.52-2.22.74-4.48,1.16-6.9l.95-.5Z"/><path class="cls-3" d="M952,658.41c13.7-4.24,26.56,6.17,32.09,17.83a35.32,35.32,0,0,1,3.6,12.12l-3.14,2.48c-11.25-4.18-18.22-13.05-25.5-21.65-2.44-3.06-5.3-6.24-7.42-9.78l.37-1Z"/><path class="cls-3" d="M1021.57,700c-2.45,8.32-9.45,14.82-15.44,20.14-3.41,3-6.86,6-10.46,9a68.68,68.68,0,0,1-7.74,5.73l-3.6-1.75c-.63-9.68,4.4-18.79,11.62-24.83a40,40,0,0,1,21.31-8.85,29.49,29.49,0,0,1,3.65-.27l.66.84Z"/><path class="cls-3" d="M951.8,740.05c16.29-7.47,30.88,5.56,34.83,20.84a37.61,37.61,0,0,1,1.32,14l-3.65,1.63c-7.17-5.25-11.71-12.67-16.51-19.11A63.35,63.35,0,0,0,957,745.79c-.65-.53-1.95-1.62-2.58-2.18a32.34,32.34,0,0,1-2.79-2.5l.15-1.06Z"/><path class="cls-4" d="M986.86,648.3c1.48,61,1.47,122.76-.05,183.78h-2c-.25-7.65-.36-15.31-.54-23-.72-45.6-.71-92.24,0-137.84.19-7.66.3-15.31.55-23Z"/><circle class="cls-3" cx="1006.17" cy="744.04" r="3.52"/><path class="cls-4" d="M1005.94,745.94c-5.91,2.09-8.61,15-10.76,20.68a207.4,207.4,0,0,1-8.76,23.29l-.9-.4a205.06,205.06,0,0,0,8.24-23.34c1.9-5.95,3.34-12.15,6.53-17.64a10,10,0,0,1,5-4.49l.62,1.9Z"/><circle class="cls-3" cx="966.37" cy="690.46" r="3.52"/><path class="cls-4" d="M967.22,690.46c6.86,2.53,9.19,15.8,11.44,22.17,1.8,5.93,3.73,11.82,6,17.58.38,1,.76,1.92,1.16,2.87a5.29,5.29,0,0,0,1.67,2.64l-1.83.82a5.76,5.76,0,0,0-.8-3q-1.85-4.31-3.41-8.7c-1.43-3.9-2.68-7.85-4-11.79-2-5.79-3.53-11.89-6.75-17.09a8.05,8.05,0,0,0-4.13-3.55l.62-1.9Z"/><circle class="cls-3" cx="1005.74" cy="652.21" r="3.52"/><path class="cls-4" d="M1005.51,654.12c-6.1,2-8.84,14.9-11,20.59-1.93,5.9-3.86,11.82-6.21,17.58-.65,2.05-2.08,3.7-1.81,6l-1.82-.82a4.9,4.9,0,0,0,1.85-2.56c1.19-2.86,2.29-5.76,3.31-8.68q2.06-5.85,3.82-11.8c1.86-6,3.28-12.13,6.35-17.67a10,10,0,0,1,4.93-4.55l.62,1.9Z"/><polygon class="cls-5" points="1026.9 877.35 951.23 877.35 937.38 791.09 1040.75 791.09 1026.9 877.35"/><polyline class="cls-6" points="1037.2 813.17 1026.9 877.35 951.23 877.35 940.82 812.52"/><rect class="cls-7" x="929.49" y="782.33" width="119.15" height="24.53" rx="4.32"/><path class="cls-3" d="M959.87,465.33,904.76,838.66c0,.63,0,1.24-.1,1.87l-618.77-.1c0-.64,0-1.25,0-1.88l55-373.34a35.57,35.57,0,0,1,4.6-13.26,39.94,39.94,0,0,1,10.65-11.85A37.85,37.85,0,0,1,361,437a36,36,0,0,1,17-4.37l553.34.11c18.1,0,30.88,14.61,28.49,32.57"/><polygon class="cls-7" points="933.85 456.07 359.78 456.07 306.87 841.82 880.93 841.82 933.85 456.07"/><polygon class="cls-5" points="925.8 463.09 922.67 485.9 921.98 490.94 874.81 834.8 314.92 834.8 362.09 490.94 365.91 463.09 925.8 463.09"/><polygon class="cls-3" points="922.67 485.9 874.81 834.8 707.24 834.8 756.85 485.9 922.67 485.9"/><path class="cls-7" d="M904.09,854.24l1.8-8.7a6,6,0,0,0-5.94-6.92l-738.79,1.25a9.91,9.91,0,0,0-9.8,9.52l.61,9.33c-.13,4,3,4.48,7,4.48Z"/><path class="cls-5" d="M904.09,854.24l-2.23,16.38a9,9,0,0,1-8.93,7.79l-730.87-1.25a9.91,9.91,0,0,1-9.8-9.52l-.29-8.92c-.13-4,3-4.48,7-4.48Z"/><path class="cls-8" d="M903.18,861l-1.32,9.65a9,9,0,0,1-8.93,7.79l-730.87-1.25a9.91,9.91,0,0,1-9.8-9.52l-.14-4.44"/><polygon class="cls-5" points="743.45 713.82 868.53 713.82 881.25 622.86 756.18 622.86 743.45 713.82"/><polygon class="cls-5" points="757.97 610.02 883.05 610.02 895.77 519.06 770.7 519.06 757.97 610.02"/><g class="cls-9"><path class="cls-3" d="M749.84,728.57l3,1.88,8.65,5.4,1.74,9.83.07.37c.1.06.06.65-.1,1.65-.35,2.25-1.27,6.56-2.4,11.55,0,0,0,.07,0,.11-1,4.57-2.25,9.71-3.34,14.32,0,.09-.05.19-.08.29-.58,2.44-1.13,4.73-1.61,6.71H816c-.12-4.2-.08-9.5,1.32-13.77a1.27,1.27,0,0,0,.06-.18c1.6-4.69,4.9-8.08,11.52-7.32H829c.31,0,.62.08.94.14q1.44-5.43,2.6-10c6.6-26.11,6.91-34,4.06-39.77-3.56-7.19-6.23-8.47-16-8.73-.71.33-1.41.63-2.08.92-11.76,4.95-17.7,3.68-21.75,1.34a31.15,31.15,0,0,1-6.84-4.73,5.82,5.82,0,0,1-1.85-4.06c-9.46-1-14.28.38-19.09,5.53S762.85,709.25,749.84,728.57Z"/><path id="Path-99" class="cls-10" d="M770.49,715.64Q763.91,724.79,763,734t2.51,13.64l-3.82,20.31"/><path id="Path-102" class="cls-7" d="M794.42,652.23q.38-7.85,4.54-11.56c4.17-3.71,14.31-8.5,23.81-5.31s12.8,14.31,11.67,24.74c-.76,6.95-5.46,14.88-9.46,18.22s-12.23,2.53-13.5,0C810.64,676.64,803.52,667.9,794.42,652.23Z"/><path class="cls-5" d="M799.48,677.69l-1.23,8.94-1.73,8.85-8.11.82a7.13,7.13,0,0,0,1.51,2.25c1.68,1.77,4.29,3.26,6.84,4.74,4,2.33,10,3.6,21.75-1.35l.8-.35-8.59-2.68,2.77-20.15c.65-7.88,5-12.1,7.74-12.1a7.87,7.87,0,0,0,3.21-8.82c-1.5-4.15-6.86.26-7.23-2.28-1.55-9.3-8.67-5.89-12.31-3-4.52-9-9.14-.32-9.14-.32l-3.84,7.49-.29,8.72,3.5,6.31Z"/><path id="Path-86" class="cls-10" d="M795.75,652.23a22.2,22.2,0,0,0-4.35,14.67q.57,7.7,8.6,10.76l-3.48,17.82-6.87.22"/><path id="Path-98" class="cls-10" d="M798.55,677a8.38,8.38,0,0,0,3.46,1.2,16.53,16.53,0,0,0,5.68-.24"/><path class="cls-7" d="M830.44,637.73c.57-4.08,7.56-11,12.82-3s8.3,16.65-4.58,17.54S830.44,637.73,830.44,637.73Z"/><path class="cls-10" d="M819,700.18l-8.75-1.77s2.23-11.09,2.9-16.4"/><path class="cls-10" d="M821.1,658.76c2.62-.47,1.58,4.93-.66,4.74"/><polygon class="cls-5" points="708.74 710.07 715.16 723.64 720.07 725.01 744.97 753.3 750.79 757.53 755.47 756.5 763.26 745.67 761.52 735.86 752.87 730.46 748.17 735.04 728.93 718.45 723.52 711.74 715.01 709.59 708.74 710.07"/><path id="Path-92" class="cls-10" d="M749.72,733.7,748,735.08l-18.82-16.22q-4.17-6-6.85-7.35c-2.68-1.32-13.72-2.86-13.55-.91q.16,1.95,6.38,13"/><path id="Path-93" class="cls-10" d="M761.86,749.39q-6.83,8.21-10.5,7.84-4.82-.47-31.29-32.22l-4.88-1.16"/><polygon id="Path-108" class="cls-5" points="813.84 742.03 812.5 745 769.66 758.48 758.7 759.44 749.35 766.01 744.41 772.09 762.72 774.32 768.23 770.61 822.89 766.49 827.72 763.18 834.07 742.68 813.84 742.03"/><path id="Path-92-2" data-name="Path-92" class="cls-10" d="M813.61,742.89l-1.26,2.22-42.08,13.38q-9.25.21-12.8,1.9c-3.55,1.69-14.51,11-12.52,12q2,1,17.77,2"/><path id="Path-93-2" data-name="Path-93" class="cls-10" d="M833.76,744.7q-4.63,19.35-10.37,21.21c-3.82,1.24-20,1.12-55.16,4.7l-5.3,3.81"/></g><polygon class="cls-8" points="743.45 713.82 868.53 713.82 881.25 622.86 756.18 622.86 743.45 713.82"/><polygon class="cls-11" points="728.93 817.62 854 817.62 866.73 726.66 741.65 726.66 728.93 817.62"/><g class="cls-12"><path id="Path-102-2" data-name="Path-102" class="cls-7" d="M819.3,543.49q-.81-7.1,2.56-11A22.56,22.56,0,0,1,842.07,525c9.38,1.5,15.45,10.3,15.9,19.8q.45,9.52-5.15,20.22-3.12,3.45-5.93,3.39c-2.8-.06-8.25-1.63-9.81-3.71Q835.52,562.63,819.3,543.49Z"/><path id="Path-103" class="cls-5" d="M820.53,543.51l-3.71,6.9-.46,8.12,3.1,6,4,2.84-2.19,14.29-10.8.17,3.09,9.39c6.1,3.71,13.79,4.5,22.3,3.79l14.8-11.85-15.8-2.42,1.06-13.12,5.06-5.41,2.79-5.2,3.6-.32,2-5.56-2.07-2.88-4.51-1.1-2.15-5.21,1.31-4.29-13.66,6.07Z"/><path id="Path-86-2" data-name="Path-86" class="cls-13" d="M820.53,543.51a20.79,20.79,0,0,0-4.35,13.6q.35,7.17,7.72,10.21l-2.69,14.29-6.39.1"/><path id="Path-87" class="cls-13" d="M820.84,543q1.54,1.26,6.92.14t14.13-5.56a8.75,8.75,0,0,0-.92,5.83,6.66,6.66,0,0,0,2.72,4.43q4.59-1,5.25,2.43c.66,3.47-1,6.28-2.18,6.73a4.68,4.68,0,0,1-3-.06q-.37,2.64-3.41,6t-4.3,3.65l-1.8,14.16,9.17,1.08"/><path id="Path-98-2" data-name="Path-98" class="cls-13" d="M822.58,566.66a8,8,0,0,0,3.18,1.2,15,15,0,0,0,5.26-.11"/><path id="Path-104" class="cls-13" d="M846,569.88a4.69,4.69,0,0,0,2.73.06,9.47,9.47,0,0,0,4.08-2.65"/><path id="Path-105" class="cls-7" d="M846,571.68c.62.36,1.81.39,3.56.08a7.43,7.43,0,0,0,4.63-3.17q2.1,0,3.51,4.17c1.42,4.12-.69,9.25.56,12a13.42,13.42,0,0,0,4.61,5.13q-12.5,1.25-15.62-5.79T846,571.68Z"/><path id="Path-93-3" data-name="Path-93" class="cls-5" d="M779.58,632.91q-15,9.92-19,7.46c-2.67-1.65-34.4-15.37-34.4-15.37s-4.58-.51-6.27-.54c-5.09-.09-13-8-8.79-10.42,1.88-1.08,11.06-2.85,14.11-2.18.91.19,4-3.38,5.26-2.63,1.56.94,1.37,6.35,3.45,8.15l32.69,2,5.63-2.48Z"/><path id="Path-93-2-2" data-name="Path-93-2" class="cls-13" d="M731.89,615.69c.66.51,1.34,1.08,2.05,1.69l32.69,2"/><path id="Path-93-3-2" data-name="Path-93-3" class="cls-13" d="M772.9,637q-9.28,5.19-12.32,3.34c-2.67-1.65-34.4-15.37-34.4-15.37s-3.17-.16-6.27-.54-13.18-7.11-8.79-10.42,11.06-2.85,14.11-2.18a8.35,8.35,0,0,1,1.64.56"/><path class="cls-3" d="M852.72,635q.25-1.51.51-3c1.64-2.83,3.15-5.6,4.46-8.28a119.39,119.39,0,0,0,4.83-10.95h0c3.05-8,4.41-14.55,4.38-18.46a9,9,0,0,0-.35-2.71c-1.59-4.71-8.44-7.09-17.29-9.17-7.68-.44-16.12,12.2-25.69,11.49-7.64-.61-8.75-12.19-11.56-13.42s-23.48,13.24-41.75,34.6l.88,2.27,6.58,16.78.91,2.32.24.6,1.61-1.14,18-12.81c1,.65.72,11,.72,11L798,638.84c-.69,2.68-1.62,6.32-2.65,10.35"/><path id="Path-93-4" class="cls-5" d="M848.51,641.34c-4.17,10.9-8,16.15-11.31,17.3s-44.55-10.14-44.55-10.14-5.13.51-6.27-.58-8.32-9.25-8.73-10.47c-.61-1.85,11.07-2.8,14.12-2.12,2,.46,4.92,2.31,8.68,5.58l25,1.68,5.18-8.42Z"/><path id="Path-93-5" class="cls-13" d="M846,647.24c-3.22,6.94-6.2,10.48-8.84,11.39-3.29,1.14-44.55-10.14-44.55-10.14s-5.13.51-6.27-.58-8.32-9.24-8.72-10.47c-.62-1.85,11.06-2.8,14.11-2.12q3,.69,8.68,5.58l25,1.68,3.08-5"/><path id="Path-88" class="cls-3" d="M848.58,644.36l-20.13-9.24c10.8-22.57,12.24-33.61,14.38-37.38s10.88-13.23,19.06-10.4,4.55,16.14,3,20S848.58,644.36,848.58,644.36Z"/><path class="cls-13" d="M802.32,609.81c-3.53,4.25-5.44,11.67-3,19"/><path class="cls-13" d="M726.89,612.8c.5-1.61,1.6-4.78,4-3.52s-.2,5.63,1.14,6.59"/><path class="cls-13" d="M838.24,614c-5.39,6.11-7.58,20.12-7.58,20.12"/></g><g class="cls-14"><path class="cls-7" d="M822.09,862.9l-67.51,4.6c.76-11.31,4.22-37.42,7.31-43.16-.12-1.89,1-33.42,14.33-35.65,3.84,11.15,13.45,10,28.45,1.16,12.72-.92,25.52,3.41,25,15.15C828.86,826.72,826.61,837.67,822.09,862.9Z"/><ellipse class="cls-5" cx="791.05" cy="756.07" rx="18.64" ry="12.6" transform="matrix(0.26, -0.97, 0.97, 0.26, -143.64, 1325.07)"/><path class="cls-3" d="M828.36,795.41c-6.86-8.76-7.5-37.67-10.05-45.72-4.87-15.36-19.1-16.63-26.44-15.55-4.56.66-10.41,8.7-11.55,11.19-3.81,8.36-4.74,14.32-2.82,22.09,1.45,5.84-2.66,22.12-12.09,23.75-5.8,1-8.54,2.93-8.91,5.23-.78,4.8,8.86,11.25,22.56,14.49a55,55,0,0,0,16.75,1.18c2.41-.18,4.71-.47,6.89-.83.55-.08,1.08-.18,1.61-.27l.09,0c4.61-.82,8.56-1.82,11.58-2.31h0a3.35,3.35,0,0,1,.44-.07,13.31,13.31,0,0,1,3.61-.18l.31.05a3.12,3.12,0,0,1,1,.38c1.17.72,5.17-1,7.4-4l0-.06a7.74,7.74,0,0,0,.74-1.2C830.7,801.29,830.76,798.47,828.36,795.41Zm-45.42-22.86a8.15,8.15,0,0,1-3.29-4.52s0,0,0,0c-1.66-5-.54-12.43,1-18.48a15,15,0,0,1,3.54-6.59c5.37-5.72,14.49-5.36,18.22,1.65a14.31,14.31,0,0,1,1.49,4.72,23.82,23.82,0,0,1-2.8,14.41h0c-2.67,4.68-7.41,8.72-15.36,9.88a8.34,8.34,0,0,1-1.85-.55h0a5.77,5.77,0,0,1-.92-.49Z"/><path class="cls-15" d="M803.82,794.81c4.47-1.09,6,2.33,15.13-3"/><path class="cls-15" d="M820.82,808.54c-6.64-1.43-4.94,2.49-14.61,2.34"/><path class="cls-15" d="M787,782.76c6.82-4.72,14.38-2.51,18.85-9.6"/><path class="cls-15" d="M803.09,746.18c1.81,6,1,26.34-17.37,27.69-3.2-.3-11.89-7-2.73-29.39"/><path class="cls-7" d="M784.05,743c5-2.21,10.32-2.21,18.38,1.58,1.23-.32-3-6.09-9.18-6S783.52,742.48,784.05,743Z"/></g><polygon class="cls-8" points="757.97 610.02 883.05 610.02 895.77 519.06 770.7 519.06 757.97 610.02"/><polygon class="cls-3" points="925.8 463.09 922.67 485.9 921.98 490.94 362.09 490.94 365.91 463.09 925.8 463.09"/><ellipse class="cls-7" cx="377.79" cy="476.88" rx="5.33" ry="4.75" transform="translate(-224.02 387.61) rotate(-43.18)"/><ellipse class="cls-5" cx="395.26" cy="476.88" rx="5.33" ry="4.75" transform="translate(-219.29 399.56) rotate(-43.18)"/><path class="cls-5" d="M413.31,471.85v1.07A3.41,3.41,0,0,1,415.9,474a3.47,3.47,0,0,1,.8,2.74,4.73,4.73,0,0,1-4.56,4.07,3.4,3.4,0,0,1-2.58-1.11,3.43,3.43,0,0,1-.8-2.74,4.7,4.7,0,0,1,4.55-4.07v-1.07m0,0a5.78,5.78,0,0,0-5.61,5,4.4,4.4,0,0,0,4.43,5.05h0a5.8,5.8,0,0,0,5.61-5,4.4,4.4,0,0,0-4.44-5Z"/><line class="cls-8" x1="921.98" y1="490.94" x2="759.64" y2="490.94"/><path id="Path-26" class="cls-5" d="M352.61,609.9c-25.34-68.49-43.47-96.33-57-120.09-3.76-9.77-3.52-17.14-2.81-26.62s.73-30.24-7.82-48.76-36.79-39.73-39.1-3.78q-2.31,35.94,17.83,79.67C285.39,600.76,317,674.15,336.34,686.59l57.25-11.37,1.21-84.45Z"/><path id="Path-27" class="cls-5" d="M283.23,432.75q-12-20.14-17.76-11.18c-3.84,6,9.83,47.4,12.8,47.38S283.23,432.75,283.23,432.75Z"/><path id="Path-26-2" data-name="Path-26" class="cls-8" d="M354.22,609.91c-25.33-68.49-45.08-96.34-58.57-120.1-3.76-9.77-3.52-17.14-2.81-26.62s.73-30.24-7.82-48.76-36.79-39.73-39.1-3.78q-2.31,35.94,17.83,79.67c21.64,110.44,51.87,185.7,71.17,198.14l11.79-2.54"/><path id="Path-27-2" data-name="Path-27" class="cls-8" d="M282.16,432.71c-8-13.43-12.84-17.11-16.69-11.14s7.38,45.2,12.94,47"/><polygon id="Path-36" class="cls-5" points="565.65 563.08 540.3 558.4 535.73 514.3 544.87 499.35 549.21 483.91 561.07 482.83 567.2 471.79 564.14 459.87 560.49 456.27 565.73 435.68 486.99 428.71 482.36 431.22 471.63 451.53 465.71 474.63 470.36 494.46 479.23 506.73 492.07 515.31 496.92 514.87 500.19 561.22 466.78 569.21 502 598.64 569.45 593.04 565.65 563.08"/><path id="Path-20" class="cls-8" d="M539.71,554.42c-1.77-12.91-1.75-23.48-4-40.12,4.65-4.11,7.62-12,9.14-14.95s2.93-8,4.24-15.36q19.18-.23,17.77-15.72t-18.65-12.21"/><path id="Path-21" class="cls-8" d="M477,442.6q-13.51,22.06-10.66,37.71Q474,511.83,498.46,516l1.44,37.65"/><path id="Path-22" class="cls-8" d="M562.08,449.94a26.13,26.13,0,0,0-16.14-1.83"/><path id="Path-23" class="cls-7" d="M564.69,444.38q-12.91-4.49-21.92-3.66-1.18-4-2.91-9-18,22.51-57.66,1.18c-39.68-21.34,2.32-89.56,42.16-64.32q21.51,14,24.47,23.75,16.44.89,20.25,10Q576.67,414.65,564.69,444.38Z"/><path class="cls-3" d="M458.32,569.66c37.91,5.41,25.6,60.65.11,80.36-23.77,16.53-51.05,45.15-103.54,37.88,9.37-13.46,4.05-80.86,4.05-80.86S413.81,565.71,458.32,569.66Z"/><path class="cls-3" d="M648.94,771.19c-1.1,24.42-2.29,47.06-3.33,64.78H412.1c-.05-5.19-.12-10.84-.19-16.87q-.17-13.05-.36-26.2-.21-15.06-.44-30.25c-.06-5-.14-10.11-.2-15.19-.25-20.13-.48-43.53-.48-66.31,0-21.25.19-41.94.79-58.92,7-17.52,25.4-42.48,37.68-51.37,3.4-.14,6.84-.21,10.2-.21,1.36,0,2.71,0,4,0l5.54.11c2.13.06,4.2.14,6.17.22l.94,0q0,.59.06,1.17a28,28,0,0,0,.87,5.29c2.7,10.39,11,17.82,21.83,22.3,1,.41,2,.79,3,1.15,1.89.66,3.84,1.25,5.83,1.75a74.77,74.77,0,0,0,8.46,1.57c.45.07.9.12,1.35.17,2,.22,4,.37,6.09.43,15.44.54,31.26-3.3,41.67-11.47a36.4,36.4,0,0,0,4-3.68,28.31,28.31,0,0,0,7.9-19.52c3.74.14,8.55.17,13.94.27,11.75.24,26.21.85,38.22,3.79,7.55,1.85,14.13,4.6,18.46,8.77C654.92,592.85,652.48,691.56,648.94,771.19Z"/><polygon class="cls-3" points="594.38 571.66 542.96 613.57 485.07 614 458.7 570.8 478.12 563.66 479.88 563.02 506 576.76 514.5 591.39 516.32 608.43 520.47 590.35 520.59 589.99 530.27 573.32 558.09 559.56 561.44 560.68 594.38 571.66"/><polygon class="cls-3" points="514.5 591.39 500.29 601.93 472.9 568.66 478.12 563.66 487.42 550.92 495.1 557.46 514.5 591.39"/><polygon class="cls-3" points="566.9 566.94 531.84 604.73 520.47 590.35 520.59 589.99 530.27 573.32 542.59 552.16 549.07 546.5 561.44 560.68 566.9 566.94"/><polyline class="cls-8" points="481.71 576.11 504.81 595.54 512.08 615.63"/><polyline class="cls-8" points="558.13 568.99 527.47 594.68 518.92 615.63"/><path class="cls-5" d="M618.49,799.84c-20.62,10.87-146.61,17.71-146.61,17.71s-42.3-11.08-62.2-26c0,0,0,0,0,0a32,32,0,0,1-8.06-8.19,12.84,12.84,0,0,1-1.92-4.9c-.82-5.21,2.39-10.6,11.65-15.94a72.45,72.45,0,0,1,12.9-6l.42-.15c8.6-2.87,16-3.16,22.39-1.9.63.12,1.25.27,1.86.42,19.7,5,28.29,24.75,28.29,24.75L587.45,756.4l2.88-3.63,3.75-4.73c45.21-9.92,56.72,3.24,48.07,30.2-.27.48-.53,1-.79,1.4C634.64,791.38,629.79,793.88,618.49,799.84Z"/><path class="cls-8" d="M587.45,756.4,477.21,779.66s-8.59-19.77-28.29-24.75c-.61-.15-1.23-.3-1.86-.42-6.36-1.26-13.79-1-22.39,1.9l-.42.15a72.45,72.45,0,0,0-12.9,6c-9.26,5.34-12.47,10.73-11.65,15.94a12.84,12.84,0,0,0,1.92,4.9,32,32,0,0,0,8.06,8.19s0,0,0,0c19.9,14.92,62.2,26,62.2,26s126-6.84,146.61-17.71c11.3-6,16.15-8.46,22.87-20.2.26-.45.52-.92.79-1.4"/><path class="cls-3" d="M600,590.47c18.59-37.53,72.55-3.5,74.93,29.06S678.76,727.71,645.19,777C659,756.78,580,748.91,580,748.91S580.12,630.52,600,590.47Z"/><path class="cls-8" d="M604.69,611.75c-2.94,12.17-12.12,88.82-12.12,100.82"/><line class="cls-8" x1="516.68" y1="621.8" x2="511.76" y2="756.86"/><ellipse class="cls-7" cx="525.31" cy="631.49" rx="3.02" ry="2.87"/><ellipse class="cls-7" cx="522.2" cy="668.74" rx="3.02" ry="2.87"/><ellipse class="cls-7" cx="520.64" cy="706.24" rx="3.02" ry="2.87"/><ellipse class="cls-7" cx="519.64" cy="746.76" rx="3.02" ry="2.87"/><path class="cls-8" d="M432,588.68c-18.61,23.61-21.79,54-19.07,73.56s3.18,31.34,3.18,31.34"/><path class="cls-3" d="M767.31,343.65c0,28.27-37.1,51.19-82.88,51.19a128.09,128.09,0,0,1-32.26-4c-9.92-2.59-49.33,10.66-49.33,10.66s10.9-30.46,6.82-35.71c-5.2-6.69-8.11-14.2-8.11-22.12,0-28.27,37.11-51.19,82.88-51.19S767.31,315.38,767.31,343.65Z"/><line class="cls-11" x1="627.87" y1="329.24" x2="741.45" y2="329.24"/><line class="cls-11" x1="627.87" y1="347.02" x2="741.45" y2="347.02"/><line class="cls-11" x1="627.87" y1="362.82" x2="699.42" y2="362.82"/></svg>